<?xml version="1.0" standalone="no"?>
<!DOCTYPE svg PUBLIC "-//W3C//DTD SVG 20010904//EN"
 "http://www.w3.org/TR/2001/REC-SVG-20010904/DTD/svg10.dtd">
<svg version="1.0" xmlns="http://www.w3.org/2000/svg"
 width="155.000000pt" height="80.000000pt" viewBox="0 0 155.000000 80.000000"
 preserveAspectRatio="xMidYMid meet">

<g transform="translate(0.000000,80.000000) scale(0.100000,-0.100000)"
fill="#000000" stroke="none">
<path d="M803 644 c-3 -8 -17 -20 -30 -25 -20 -7 -24 -15 -21 -41 3 -33 3 -33
62 -36 66 -3 73 0 78 43 3 26 0 30 -24 33 -20 2 -28 9 -28 23 0 23 -28 26 -37
3z m53 -34 c20 0 24 -5 24 -30 0 -29 -2 -30 -45 -30 -43 0 -45 2 -45 28 0 15
8 39 18 52 l17 25 3 -22 c3 -17 10 -23 28 -23z m-79 -47 c-3 -10 -5 -2 -5 17
0 19 2 27 5 18 2 -10 2 -26 0 -35z"/>
<path d="M1220 568 c-14 -6 -43 -14 -65 -17 l-40 -6 -3 -67 c-3 -66 9 -91 23
-48 12 39 142 39 152 -1 7 -24 19 -24 26 0 10 40 144 40 154 0 12 -43 24 -15
21 49 l-3 67 -40 6 c-22 3 -53 11 -68 18 -35 14 -123 13 -157 -1z"/>
<path d="M17 563 c-4 -3 -7 -42 -7 -85 0 -63 3 -78 15 -78 10 0 15 11 15 35 0
28 4 35 20 35 16 0 20 -7 20 -35 0 -24 5 -35 15 -35 12 0 15 16 15 85 0 69 -3
85 -15 85 -10 0 -15 -11 -15 -35 0 -28 -4 -35 -20 -35 -16 0 -20 7 -20 35 0
33 -8 43 -23 28z"/>
<path d="M142 557 c-16 -19 -18 -123 -2 -142 15 -18 51 -20 68 -3 18 18 15
123 -4 142 -19 19 -48 21 -62 3z m46 -75 c2 -42 0 -52 -12 -52 -13 0 -16 12
-16 56 0 73 24 70 28 -4z"/>
<path d="M230 555 c0 -8 7 -15 15 -15 12 0 15 -14 15 -70 0 -56 3 -70 15 -70
12 0 15 14 15 70 0 56 3 70 15 70 8 0 15 7 15 15 0 11 -12 15 -45 15 -33 0
-45 -4 -45 -15z"/>
<path d="M337 563 c-4 -3 -7 -42 -7 -85 l0 -78 40 0 c29 0 40 4 40 15 0 9 -9
15 -25 15 -18 0 -25 5 -25 20 0 15 7 20 25 20 16 0 25 6 25 15 0 9 -10 15 -26
15 -33 0 -30 33 4 38 36 5 27 32 -11 32 -19 0 -37 -3 -40 -7z"/>
<path d="M437 563 c-4 -3 -7 -42 -7 -85 l0 -78 45 0 c33 0 45 4 45 15 0 10
-10 15 -30 15 l-30 0 0 70 c0 64 -6 81 -23 63z"/>
<path d="M603 470 c0 -41 2 -58 4 -37 2 20 2 54 0 75 -2 20 -4 3 -4 -38z"/>
<path d="M670 507 c0 -15 -6 -27 -12 -27 -10 0 -10 -2 -1 -8 6 -4 13 -21 15
-37 4 -26 5 -27 13 -11 5 11 4 25 -2 35 -7 12 -8 23 -1 35 7 12 7 21 -1 29 -8
8 -11 4 -11 -16z"/>
<path d="M713 450 c0 -30 2 -43 4 -27 2 15 2 39 0 55 -2 15 -4 2 -4 -28z"/>
<path d="M843 450 c0 -30 2 -43 4 -27 2 15 2 39 0 55 -2 15 -4 2 -4 -28z"/>
<path d="M900 456 c0 -25 5 -48 10 -51 6 -4 10 11 10 39 0 25 -4 48 -10 51 -6
4 -10 -11 -10 -39z"/>
<path d="M751 468 c-7 -19 -4 -58 4 -58 2 0 5 18 7 40 4 45 1 50 -11 18z"/>
<path d="M816 477 c3 -10 9 -15 12 -12 3 3 0 11 -7 18 -10 9 -11 8 -5 -6z"/>
<path d="M1168 433 c-39 -10 -15 -23 42 -23 60 0 80 12 38 24 -25 6 -54 6 -80
-1z"/>
<path d="M1348 433 c-39 -10 -15 -23 42 -23 60 0 80 12 38 24 -25 6 -54 6 -80
-1z"/>
<path d="M1097 384 c-4 -4 -7 -20 -7 -36 l0 -28 211 0 210 0 -3 33 -3 32 -201
3 c-110 1 -203 -1 -207 -4z"/>
<path d="M20 270 l0 -110 40 0 c63 0 80 24 80 113 0 88 -14 107 -78 107 l-42
0 0 -110z m71 70 c15 -8 19 -21 19 -60 0 -61 -7 -80 -31 -80 -17 0 -19 8 -19
75 0 41 3 75 6 75 3 0 14 -5 25 -10z"/>
<path d="M170 287 c0 -103 12 -127 62 -127 46 0 58 27 58 128 0 85 -1 92 -20
92 -19 0 -20 -7 -20 -89 0 -66 -4 -90 -14 -94 -26 -10 -36 17 -36 100 0 67 -3
83 -15 83 -12 0 -15 -17 -15 -93z"/>
<path d="M320 270 l0 -110 50 0 c43 0 50 3 50 20 0 16 -7 20 -36 20 -33 0 -35
2 -32 28 2 22 8 28 36 30 19 2 32 9 32 17 0 8 -13 15 -32 17 -25 2 -34 8 -36
26 -3 19 1 22 32 22 29 0 36 4 36 20 0 17 -7 20 -50 20 l-50 0 0 -110z"/>
<path d="M450 270 c0 -103 1 -110 20 -110 17 0 20 7 20 50 0 34 4 50 13 50 23
0 37 -23 37 -62 0 -31 4 -38 20 -38 16 0 20 7 20 36 0 19 -5 45 -11 56 -8 14
-8 23 0 31 16 16 14 49 -5 75 -12 18 -25 22 -65 22 l-49 0 0 -110z m78 71 c21
-13 10 -46 -16 -49 -19 -3 -22 1 -22 27 0 31 13 39 38 22z"/>
<path d="M610 270 c0 -91 3 -110 15 -110 12 0 15 16 15 83 1 82 1 82 20 59
l19 -22 15 22 c15 21 16 18 16 -60 0 -75 2 -82 20 -82 19 0 20 7 20 110 0 105
-1 110 -21 110 -11 0 -29 -10 -39 -22 l-17 -22 -12 22 c-6 12 -21 22 -31 22
-19 0 -20 -7 -20 -110z"/>
<path d="M780 270 l0 -110 50 0 c43 0 50 3 50 20 0 16 -7 20 -36 20 -33 0 -35
2 -32 28 2 22 8 28 36 30 19 2 32 9 32 17 0 8 -13 15 -32 17 -25 2 -34 8 -36
26 -3 19 1 22 32 22 29 0 36 4 36 20 0 17 -7 20 -50 20 l-50 0 0 -110z"/>
<path d="M1090 260 c0 -36 3 -40 25 -40 18 0 25 5 25 20 0 19 7 20 160 20 153
0 160 -1 160 -20 0 -15 7 -20 25 -20 23 0 25 4 25 40 l0 40 -210 0 -210 0 0
-40z"/>
</g>
</svg>
